<mxfile host="app.diagrams.net" modified="2021-09-11T13:02:49.345Z" agent="5.0 (Macintosh; Intel Mac OS X 10_15_7) AppleWebKit/605.1.15 (KHTML, like Gecko) Version/14.1 Safari/605.1.15" etag="ju2OsNwTRLxj-crmk1Ws" version="15.1.4" type="github">
  <diagram id="uPwQ-DKn6TWLFWeCrAIk" name="Page-1">
    <mxGraphModel dx="1815" dy="1811" grid="1" gridSize="10" guides="1" tooltips="1" connect="1" arrows="1" fold="1" page="1" pageScale="1" pageWidth="827" pageHeight="1169" math="0" shadow="0">
      <root>
        <mxCell id="0" />
        <mxCell id="1" parent="0" />
        <mxCell id="hybPqLs7shXcZBpGnRqg-33" value="" style="rounded=1;whiteSpace=wrap;html=1;strokeColor=#6c8ebf;fillColor=#dae8fc;movable=1;resizable=1;rotatable=1;deletable=1;editable=1;connectable=1;" vertex="1" parent="1">
          <mxGeometry y="-70" width="1110" height="570" as="geometry" />
        </mxCell>
        <mxCell id="hybPqLs7shXcZBpGnRqg-55" value="" style="whiteSpace=wrap;html=1;fillColor=#e1d5e7;strokeColor=#9673a6;" vertex="1" parent="1">
          <mxGeometry x="120" y="175" width="165" height="240" as="geometry" />
        </mxCell>
        <mxCell id="hybPqLs7shXcZBpGnRqg-31" value="" style="whiteSpace=wrap;html=1;fillColor=#fff2cc;strokeColor=#d6b656;" vertex="1" parent="1">
          <mxGeometry x="637.5" y="160" width="462.5" height="255" as="geometry" />
        </mxCell>
        <mxCell id="hybPqLs7shXcZBpGnRqg-30" value="" style="whiteSpace=wrap;html=1;fillColor=#ffe6cc;strokeColor=#d79b00;" vertex="1" parent="1">
          <mxGeometry x="300" y="175" width="315" height="240" as="geometry" />
        </mxCell>
        <mxCell id="hybPqLs7shXcZBpGnRqg-1" value="" style="whiteSpace=wrap;html=1;" vertex="1" parent="1">
          <mxGeometry x="10" y="60" width="120" height="60" as="geometry" />
        </mxCell>
        <mxCell id="hybPqLs7shXcZBpGnRqg-2" value="controller&lt;br&gt;" style="text;html=1;align=center;verticalAlign=middle;resizable=0;points=[];autosize=1;strokeColor=none;fillColor=none;" vertex="1" parent="1">
          <mxGeometry x="10" y="30" width="60" height="20" as="geometry" />
        </mxCell>
        <mxCell id="hybPqLs7shXcZBpGnRqg-3" value="service" style="text;html=1;align=center;verticalAlign=middle;resizable=0;points=[];autosize=1;strokeColor=none;fillColor=none;" vertex="1" parent="1">
          <mxGeometry x="165" y="-30" width="50" height="20" as="geometry" />
        </mxCell>
        <mxCell id="hybPqLs7shXcZBpGnRqg-4" value="获取用户 id&amp;nbsp;&lt;br&gt;调用 api 获取 锁定状态 获取报告 id &lt;br&gt;非空判断&amp;nbsp;&lt;br&gt;为空初始化&lt;br&gt;调用 api 获取 测试问卷&lt;br&gt;构建 vo 复制属性&lt;br&gt;&lt;span style=&quot;text-align: center&quot;&gt;返回 List&amp;lt;&lt;/span&gt;&lt;span style=&quot;text-align: center ; color: rgba(0 , 0 , 0 , 0.85) ; font-family: &amp;#34;helvetica neue&amp;#34; ; font-size: 14px&quot;&gt;SoulTestVo&lt;/span&gt;&lt;span style=&quot;text-align: center&quot;&gt;&amp;gt;&lt;/span&gt;" style="whiteSpace=wrap;html=1;align=left;" vertex="1" parent="1">
          <mxGeometry x="165" y="-10" width="150" height="160" as="geometry" />
        </mxCell>
        <mxCell id="hybPqLs7shXcZBpGnRqg-6" value="" style="shape=cylinder3;whiteSpace=wrap;html=1;boundedLbl=1;backgroundOutline=1;size=15;" vertex="1" parent="1">
          <mxGeometry x="537" y="50" width="60" height="80" as="geometry" />
        </mxCell>
        <mxCell id="hybPqLs7shXcZBpGnRqg-7" value="id&lt;br&gt;name&lt;br&gt;cover&lt;br&gt;level&lt;br&gt;star&lt;br&gt;questions quertions&lt;br&gt;isLock&lt;br&gt;reportld" style="whiteSpace=wrap;html=1;align=left;" vertex="1" parent="1">
          <mxGeometry x="142.5" y="200" width="120" height="190" as="geometry" />
        </mxCell>
        <mxCell id="hybPqLs7shXcZBpGnRqg-8" value="SoulTestVo" style="text;html=1;align=center;verticalAlign=middle;resizable=0;points=[];autosize=1;strokeColor=none;fillColor=none;" vertex="1" parent="1">
          <mxGeometry x="135" y="180" width="80" height="20" as="geometry" />
        </mxCell>
        <mxCell id="hybPqLs7shXcZBpGnRqg-9" value="id&lt;br&gt;question&lt;br&gt;List&amp;lt;options&amp;gt; options" style="whiteSpace=wrap;html=1;" vertex="1" parent="1">
          <mxGeometry x="330" y="200" width="120" height="180" as="geometry" />
        </mxCell>
        <mxCell id="hybPqLs7shXcZBpGnRqg-10" value="questions" style="text;html=1;align=center;verticalAlign=middle;resizable=0;points=[];autosize=1;strokeColor=none;fillColor=none;" vertex="1" parent="1">
          <mxGeometry x="330" y="180" width="70" height="20" as="geometry" />
        </mxCell>
        <mxCell id="hybPqLs7shXcZBpGnRqg-11" value="MongoDB&lt;br&gt;" style="text;html=1;align=center;verticalAlign=middle;resizable=0;points=[];autosize=1;strokeColor=none;fillColor=none;" vertex="1" parent="1">
          <mxGeometry x="545" y="140" width="70" height="20" as="geometry" />
        </mxCell>
        <mxCell id="hybPqLs7shXcZBpGnRqg-12" value="SoulTest" style="text;html=1;align=center;verticalAlign=middle;resizable=0;points=[];autosize=1;strokeColor=none;fillColor=none;" vertex="1" parent="1">
          <mxGeometry x="630" y="60" width="60" height="20" as="geometry" />
        </mxCell>
        <mxCell id="hybPqLs7shXcZBpGnRqg-13" value="Query query = new Query();&lt;br&gt;mongoTemple.find(query,SoulTest.class);&lt;br&gt;" style="text;html=1;align=center;verticalAlign=middle;resizable=0;points=[];autosize=1;strokeColor=none;fillColor=none;" vertex="1" parent="1">
          <mxGeometry x="597" y="90" width="230" height="30" as="geometry" />
        </mxCell>
        <mxCell id="hybPqLs7shXcZBpGnRqg-14" value="查找全部 测试问卷" style="text;html=1;align=center;verticalAlign=middle;resizable=0;points=[];autosize=1;strokeColor=none;fillColor=none;" vertex="1" parent="1">
          <mxGeometry x="359" y="130" width="110" height="20" as="geometry" />
        </mxCell>
        <mxCell id="hybPqLs7shXcZBpGnRqg-15" value="String id&lt;br&gt;String option" style="whiteSpace=wrap;html=1;" vertex="1" parent="1">
          <mxGeometry x="477" y="200" width="120" height="90" as="geometry" />
        </mxCell>
        <mxCell id="hybPqLs7shXcZBpGnRqg-16" value="options" style="text;html=1;align=center;verticalAlign=middle;resizable=0;points=[];autosize=1;strokeColor=none;fillColor=none;" vertex="1" parent="1">
          <mxGeometry x="477" y="180" width="50" height="20" as="geometry" />
        </mxCell>
        <mxCell id="hybPqLs7shXcZBpGnRqg-19" value="SoulTest&lt;br&gt;" style="text;html=1;align=center;verticalAlign=middle;resizable=0;points=[];autosize=1;strokeColor=none;fillColor=none;" vertex="1" parent="1">
          <mxGeometry x="660" y="180" width="60" height="20" as="geometry" />
        </mxCell>
        <mxCell id="hybPqLs7shXcZBpGnRqg-21" value="id&lt;br&gt;testId&lt;br&gt;name&lt;br&gt;cover&lt;br&gt;level&lt;br&gt;star&lt;br&gt;questions questions&lt;br&gt;reportld" style="whiteSpace=wrap;html=1;align=left;" vertex="1" parent="1">
          <mxGeometry x="660" y="200" width="120" height="190" as="geometry" />
        </mxCell>
        <mxCell id="hybPqLs7shXcZBpGnRqg-22" value="测试问卷 分初级 中级 高级 测完初级才能策中级 高级" style="text;html=1;align=center;verticalAlign=middle;resizable=0;points=[];autosize=1;strokeColor=none;fillColor=none;" vertex="1" parent="1">
          <mxGeometry x="637.5" y="420" width="300" height="20" as="geometry" />
        </mxCell>
        <mxCell id="hybPqLs7shXcZBpGnRqg-25" value="UserSoulTest" style="text;html=1;align=center;verticalAlign=middle;resizable=0;points=[];autosize=1;strokeColor=none;fillColor=none;" vertex="1" parent="1">
          <mxGeometry x="810" y="170" width="90" height="20" as="geometry" />
        </mxCell>
        <mxCell id="hybPqLs7shXcZBpGnRqg-26" value="&lt;div style=&quot;text-align: left&quot;&gt;id&amp;nbsp;&lt;/div&gt;&lt;div style=&quot;text-align: left&quot;&gt;userId&lt;/div&gt;&lt;div style=&quot;text-align: left&quot;&gt;初级测试解锁&lt;/div&gt;&lt;div style=&quot;text-align: left&quot;&gt;初级测试报告 id&lt;/div&gt;&lt;div style=&quot;text-align: left&quot;&gt;中级测试是否锁定&lt;/div&gt;&lt;div style=&quot;text-align: left&quot;&gt;中级测试报告 id&lt;/div&gt;&lt;div style=&quot;text-align: left&quot;&gt;高级测是否锁定&lt;/div&gt;&lt;div style=&quot;text-align: left&quot;&gt;高级测试报告 id&lt;/div&gt;&lt;div style=&quot;text-align: left&quot;&gt;created&lt;/div&gt;" style="whiteSpace=wrap;html=1;" vertex="1" parent="1">
          <mxGeometry x="810" y="200" width="120" height="140" as="geometry" />
        </mxCell>
        <mxCell id="hybPqLs7shXcZBpGnRqg-27" value="获取所有调查问卷" style="whiteSpace=wrap;html=1;" vertex="1" parent="1">
          <mxGeometry x="354" y="60" width="120" height="60" as="geometry" />
        </mxCell>
        <mxCell id="hybPqLs7shXcZBpGnRqg-28" value="api" style="text;html=1;align=center;verticalAlign=middle;resizable=0;points=[];autosize=1;strokeColor=none;fillColor=none;" vertex="1" parent="1">
          <mxGeometry x="354" y="40" width="30" height="20" as="geometry" />
        </mxCell>
        <mxCell id="hybPqLs7shXcZBpGnRqg-34" value="&lt;font style=&quot;font-size: 18px&quot;&gt;问卷列表&lt;/font&gt;" style="text;html=1;align=center;verticalAlign=middle;resizable=0;points=[];autosize=1;strokeColor=none;fillColor=none;" vertex="1" parent="1">
          <mxGeometry x="45" y="-60" width="90" height="20" as="geometry" />
        </mxCell>
        <mxCell id="hybPqLs7shXcZBpGnRqg-35" value="MongoDB&lt;br&gt;" style="text;html=1;align=center;verticalAlign=middle;resizable=0;points=[];autosize=1;strokeColor=none;fillColor=none;" vertex="1" parent="1">
          <mxGeometry x="637.5" y="160" width="70" height="20" as="geometry" />
        </mxCell>
        <mxCell id="hybPqLs7shXcZBpGnRqg-37" value="第一次访问&lt;br&gt;初始化问题" style="rounded=0;whiteSpace=wrap;html=1;" vertex="1" parent="1">
          <mxGeometry x="827" y="-30" width="120" height="60" as="geometry" />
        </mxCell>
        <mxCell id="hybPqLs7shXcZBpGnRqg-38" value="" style="whiteSpace=wrap;html=1;gradientColor=none;fillColor=#FFFFFF;" vertex="1" parent="1">
          <mxGeometry x="30" y="610" width="120" height="60" as="geometry" />
        </mxCell>
        <mxCell id="hybPqLs7shXcZBpGnRqg-39" value="根据用户id 查找数据库 测试问卷是否锁定" style="whiteSpace=wrap;html=1;" vertex="1" parent="1">
          <mxGeometry x="354" y="-20" width="120" height="60" as="geometry" />
        </mxCell>
        <mxCell id="hybPqLs7shXcZBpGnRqg-40" value="api" style="text;html=1;align=center;verticalAlign=middle;resizable=0;points=[];autosize=1;strokeColor=none;fillColor=none;" vertex="1" parent="1">
          <mxGeometry x="354" y="-40" width="30" height="20" as="geometry" />
        </mxCell>
        <mxCell id="hybPqLs7shXcZBpGnRqg-41" value="controller" style="text;html=1;align=center;verticalAlign=middle;resizable=0;points=[];autosize=1;strokeColor=none;fillColor=none;" vertex="1" parent="1">
          <mxGeometry x="40" y="580" width="60" height="20" as="geometry" />
        </mxCell>
        <mxCell id="hybPqLs7shXcZBpGnRqg-42" value="提交问卷" style="text;html=1;align=center;verticalAlign=middle;resizable=0;points=[];autosize=1;strokeColor=none;fillColor=none;" vertex="1" parent="1">
          <mxGeometry x="60" y="550" width="60" height="20" as="geometry" />
        </mxCell>
        <mxCell id="hybPqLs7shXcZBpGnRqg-43" value="" style="whiteSpace=wrap;html=1;gradientColor=none;fillColor=#FFFFFF;" vertex="1" parent="1">
          <mxGeometry x="230" y="610" width="120" height="60" as="geometry" />
        </mxCell>
        <mxCell id="hybPqLs7shXcZBpGnRqg-44" value="service" style="text;html=1;align=center;verticalAlign=middle;resizable=0;points=[];autosize=1;strokeColor=none;fillColor=none;" vertex="1" parent="1">
          <mxGeometry x="245" y="580" width="50" height="20" as="geometry" />
        </mxCell>
        <mxCell id="hybPqLs7shXcZBpGnRqg-45" value="" style="whiteSpace=wrap;html=1;gradientColor=none;fillColor=#FFFFFF;" vertex="1" parent="1">
          <mxGeometry x="425" y="610" width="120" height="60" as="geometry" />
        </mxCell>
        <mxCell id="hybPqLs7shXcZBpGnRqg-46" value="api" style="text;html=1;align=center;verticalAlign=middle;resizable=0;points=[];autosize=1;strokeColor=none;fillColor=none;" vertex="1" parent="1">
          <mxGeometry x="430" y="580" width="30" height="20" as="geometry" />
        </mxCell>
        <mxCell id="hybPqLs7shXcZBpGnRqg-48" value="MongoDB" style="text;html=1;align=center;verticalAlign=middle;resizable=0;points=[];autosize=1;strokeColor=none;fillColor=none;" vertex="1" parent="1">
          <mxGeometry x="662.5" y="580" width="70" height="20" as="geometry" />
        </mxCell>
        <mxCell id="hybPqLs7shXcZBpGnRqg-49" value="" style="shape=cylinder3;whiteSpace=wrap;html=1;boundedLbl=1;backgroundOutline=1;size=15;fillColor=#FFFFFF;gradientColor=none;" vertex="1" parent="1">
          <mxGeometry x="662.5" y="610" width="60" height="80" as="geometry" />
        </mxCell>
        <mxCell id="hybPqLs7shXcZBpGnRqg-50" value="id&lt;br&gt;tsetId&lt;br&gt;报告内容&lt;br&gt;created" style="whiteSpace=wrap;html=1;fillColor=#FFFFFF;gradientColor=none;" vertex="1" parent="1">
          <mxGeometry x="960" y="200" width="120" height="60" as="geometry" />
        </mxCell>
        <mxCell id="hybPqLs7shXcZBpGnRqg-51" value="测试报告" style="text;html=1;align=center;verticalAlign=middle;resizable=0;points=[];autosize=1;strokeColor=none;fillColor=none;" vertex="1" parent="1">
          <mxGeometry x="975" y="170" width="60" height="20" as="geometry" />
        </mxCell>
        <mxCell id="hybPqLs7shXcZBpGnRqg-58" style="edgeStyle=orthogonalEdgeStyle;rounded=0;orthogonalLoop=1;jettySize=auto;html=1;entryX=0;entryY=0.5;entryDx=0;entryDy=0;" edge="1" parent="1" source="hybPqLs7shXcZBpGnRqg-52" target="hybPqLs7shXcZBpGnRqg-38">
          <mxGeometry relative="1" as="geometry" />
        </mxCell>
        <mxCell id="hybPqLs7shXcZBpGnRqg-52" value="List&amp;lt;answers&amp;gt;" style="text;html=1;align=center;verticalAlign=middle;resizable=0;points=[];autosize=1;strokeColor=none;fillColor=none;" vertex="1" parent="1">
          <mxGeometry x="-165" y="610" width="90" height="20" as="geometry" />
        </mxCell>
        <mxCell id="hybPqLs7shXcZBpGnRqg-53" value="questionId&lt;br&gt;optionId" style="whiteSpace=wrap;html=1;" vertex="1" parent="1">
          <mxGeometry x="477" y="310" width="120" height="90" as="geometry" />
        </mxCell>
        <mxCell id="hybPqLs7shXcZBpGnRqg-54" value="answers&lt;br&gt;" style="text;html=1;align=center;verticalAlign=middle;resizable=0;points=[];autosize=1;strokeColor=none;fillColor=none;" vertex="1" parent="1">
          <mxGeometry x="472" y="290" width="60" height="20" as="geometry" />
        </mxCell>
        <mxCell id="hybPqLs7shXcZBpGnRqg-60" value="questionId&lt;br&gt;optionId" style="whiteSpace=wrap;html=1;" vertex="1" parent="1">
          <mxGeometry x="234" y="840" width="120" height="90" as="geometry" />
        </mxCell>
        <mxCell id="hybPqLs7shXcZBpGnRqg-61" value="answers&lt;br&gt;" style="text;html=1;align=center;verticalAlign=middle;resizable=0;points=[];autosize=1;strokeColor=none;fillColor=none;" vertex="1" parent="1">
          <mxGeometry x="235" y="820" width="60" height="20" as="geometry" />
        </mxCell>
        <mxCell id="hybPqLs7shXcZBpGnRqg-62" value="分表&amp;nbsp;" style="text;html=1;align=center;verticalAlign=middle;resizable=0;points=[];autosize=1;strokeColor=none;fillColor=none;" vertex="1" parent="1">
          <mxGeometry x="850" y="345" width="40" height="20" as="geometry" />
        </mxCell>
        <mxCell id="hybPqLs7shXcZBpGnRqg-63" value="一个testId &amp;nbsp;对应 一个 userId" style="text;html=1;align=center;verticalAlign=middle;resizable=0;points=[];autosize=1;strokeColor=none;fillColor=none;" vertex="1" parent="1">
          <mxGeometry x="807" y="370" width="160" height="20" as="geometry" />
        </mxCell>
        <mxCell id="hybPqLs7shXcZBpGnRqg-64" value="service 计算出&amp;nbsp;" style="text;html=1;align=center;verticalAlign=middle;resizable=0;points=[];autosize=1;strokeColor=none;fillColor=none;" vertex="1" parent="1">
          <mxGeometry x="230" y="690" width="100" height="20" as="geometry" />
        </mxCell>
        <mxCell id="hybPqLs7shXcZBpGnRqg-65" value="id&lt;br&gt;conclusion&lt;br&gt;cover&lt;br&gt;List&amp;lt;dimensions&amp;gt;&lt;br&gt;List&amp;lt;similarYou&amp;gt;" style="whiteSpace=wrap;html=1;" vertex="1" parent="1">
          <mxGeometry x="615" y="840" width="120" height="90" as="geometry" />
        </mxCell>
        <mxCell id="hybPqLs7shXcZBpGnRqg-66" value="reportVo" style="text;html=1;align=center;verticalAlign=middle;resizable=0;points=[];autosize=1;strokeColor=none;fillColor=none;" vertex="1" parent="1">
          <mxGeometry x="616" y="820" width="60" height="20" as="geometry" />
        </mxCell>
        <mxCell id="hybPqLs7shXcZBpGnRqg-68" value="id&lt;br&gt;avatar" style="whiteSpace=wrap;html=1;fillColor=#FFFFFF;gradientColor=none;" vertex="1" parent="1">
          <mxGeometry x="615" y="1040" width="120" height="60" as="geometry" />
        </mxCell>
        <mxCell id="hybPqLs7shXcZBpGnRqg-69" value="similarYou" style="text;html=1;align=center;verticalAlign=middle;resizable=0;points=[];autosize=1;strokeColor=none;fillColor=none;" vertex="1" parent="1">
          <mxGeometry x="615" y="1020" width="70" height="20" as="geometry" />
        </mxCell>
        <mxCell id="hybPqLs7shXcZBpGnRqg-70" value="key&lt;br&gt;value" style="whiteSpace=wrap;html=1;fillColor=#FFFFFF;gradientColor=none;" vertex="1" parent="1">
          <mxGeometry x="614.5" y="950" width="120" height="60" as="geometry" />
        </mxCell>
        <mxCell id="hybPqLs7shXcZBpGnRqg-71" value="dimensions" style="text;html=1;align=center;verticalAlign=middle;resizable=0;points=[];autosize=1;strokeColor=none;fillColor=none;" vertex="1" parent="1">
          <mxGeometry x="612.5" y="930" width="80" height="20" as="geometry" />
        </mxCell>
        <mxCell id="hybPqLs7shXcZBpGnRqg-72" value="id&lt;br&gt;testReportId&lt;br&gt;tsetId&lt;br&gt;conclusion 报告内容&lt;br&gt;created&lt;br&gt;List&amp;lt;dimensions&amp;gt;" style="whiteSpace=wrap;html=1;fillColor=#FFFFFF;gradientColor=none;" vertex="1" parent="1">
          <mxGeometry x="915" y="880" width="120" height="180" as="geometry" />
        </mxCell>
        <mxCell id="hybPqLs7shXcZBpGnRqg-73" value="测试报告" style="text;html=1;align=center;verticalAlign=middle;resizable=0;points=[];autosize=1;strokeColor=none;fillColor=none;" vertex="1" parent="1">
          <mxGeometry x="930" y="850" width="60" height="20" as="geometry" />
        </mxCell>
        <mxCell id="hybPqLs7shXcZBpGnRqg-74" value="直接查推荐表" style="text;html=1;align=center;verticalAlign=middle;resizable=0;points=[];autosize=1;strokeColor=none;fillColor=none;" vertex="1" parent="1">
          <mxGeometry x="616" y="1100" width="90" height="20" as="geometry" />
        </mxCell>
      </root>
    </mxGraphModel>
  </diagram>
</mxfile>
